<svg width="32" height="32" viewBox="0 0 32 32" fill="none" xmlns="http://www.w3.org/2000/svg">
<path fill-rule="evenodd" clip-rule="evenodd" d="M15.4913 3.4489C15.7786 3.18368 16.2215 3.1837 16.5088 3.44895L20.2499 6.90299L20.25 5.9999C20.2501 5.58573 20.5858 5.25 21 5.25H24.5C24.6989 5.25 24.8897 5.32902 25.0303 5.46969C25.171 5.61035 25.25 5.80112 25.25 6.00004L25.2497 11.5176L27.6293 13.7141L27.6293 13.7141C28.3395 14.3697 28.3838 15.4768 27.7283 16.187C27.397 16.5459 26.9308 16.75 26.4423 16.75H25.75V28C25.75 28.4142 25.4142 28.75 25 28.75H18C17.5858 28.75 17.25 28.4142 17.25 28V22.75H14.75V28C14.75 28.4142 14.4142 28.75 14 28.75H7C6.58578 28.75 6.25 28.4142 6.25 28V16.75H5.55765C4.59115 16.75 3.80765 15.9665 3.80765 15C3.80765 14.5116 4.01176 14.0454 4.37066 13.7141L15.4913 3.4489ZM15.9999 5.02073L5.38808 14.8163C5.33681 14.8636 5.30765 14.9302 5.30765 15C5.30765 15.1381 5.41958 15.25 5.55765 15.25H7C7.41421 15.25 7.75 15.5858 7.75 16V27.25H13.25V22C13.25 21.5858 13.5858 21.25 14 21.25H18C18.4142 21.25 18.75 21.5858 18.75 22V27.25H24.25V16C24.25 15.5858 24.5858 15.25 25 15.25H26.4423C26.5121 15.25 26.5787 15.2208 26.626 15.1696C26.7197 15.0681 26.7134 14.9099 26.6119 14.8163L23.991 12.3971C23.8371 12.2551 23.7496 12.0553 23.7496 11.846L23.75 6.75H21.7499L21.7496 8.6161C21.7496 8.91399 21.5733 9.18362 21.3004 9.30307C21.0275 9.42251 20.7098 9.36913 20.4909 9.16705L15.9999 5.02073Z" fill="#15191D"/>
</svg>
