<svg width="32" height="32" viewBox="0 0 32 32" fill="none" xmlns="http://www.w3.org/2000/svg">
<path fill-rule="evenodd" clip-rule="evenodd" d="M2.25 16C2.25 8.40608 8.40608 2.25 16 2.25C23.5939 2.25 29.75 8.40608 29.75 16C29.75 23.5939 23.5939 29.75 16 29.75C8.40608 29.75 2.25 23.5939 2.25 16ZM16 3.75C9.23451 3.75 3.75 9.23451 3.75 16C3.75 22.7655 9.23451 28.25 16 28.25C22.7655 28.25 28.25 22.7655 28.25 16C28.25 9.23451 22.7655 3.75 16 3.75ZM14.25 11C14.25 10.0335 15.0335 9.25 16 9.25C16.9665 9.25 17.75 10.0335 17.75 11C17.75 11.9665 16.9665 12.75 16 12.75C15.0335 12.75 14.25 11.9665 14.25 11ZM16 10.75C15.8619 10.75 15.75 10.8619 15.75 11C15.75 11.1381 15.8619 11.25 16 11.25C16.1381 11.25 16.25 11.1381 16.25 11C16.25 10.8619 16.1381 10.75 16 10.75ZM16 15.25C16.4142 15.25 16.75 15.5858 16.75 16V24C16.75 24.4142 16.4142 24.75 16 24.75C15.5858 24.75 15.25 24.4142 15.25 24V16C15.25 15.5858 15.5858 15.25 16 15.25Z" fill="#15191D"/>
</svg>
